<svg width="36" height="36" viewBox="0 0 36 36" fill="none" xmlns="http://www.w3.org/2000/svg">
<path d="M18 36C27.9411 36 36 27.9411 36 18C36 8.05887 27.9411 0 18 0C8.05887 0 0 8.05887 0 18C0 27.9411 8.05887 36 18 36Z" fill="#A8ADF0"/>
<path d="M18 0C17.2043 0 16.4207 0.0523125 15.6522 0.152367C24.4839 1.30289 31.3043 8.85466 31.3043 18C31.3043 27.1453 24.4839 34.6971 15.6521 35.8476C16.4207 35.9477 17.2043 36 18 36C27.9411 36 36 27.9411 36 18C36 8.05894 27.9411 0 18 0Z" fill="#989FEC"/>
<path d="M29.3783 8.0279L29.2894 7.80248C29.2868 7.79601 29.2818 7.79067 29.2754 7.78779L29.0547 7.68759C27.2384 6.86261 24.6765 6.65906 22.4097 6.56885H19.8567C19.8279 6.56885 19.8191 6.6078 19.845 6.62025L25.0892 9.13441C25.1188 9.14854 25.1024 9.19256 25.0706 9.18426C22.7121 8.56832 20.3295 8.25656 17.9768 8.25656C15.6317 8.25656 13.2568 8.56643 10.9056 9.17843C10.8736 9.18672 10.8573 9.14221 10.8873 9.12836L16.3155 6.62053C16.3418 6.60836 16.3333 6.56899 16.3042 6.56899H13.544C11.2773 6.6592 8.71518 6.86275 6.89893 7.68773L6.67829 7.78793C6.6719 7.79081 6.66683 7.79608 6.6643 7.80262L6.57543 8.02804C4.71665 12.738 4.18846 20.7339 4.75173 25.743L4.78126 26.0057L4.99023 26.1678C7.894 28.4194 11.7767 29.5771 14.2193 29.8843L14.5352 29.9241C14.6378 29.937 14.7359 29.8777 14.7722 29.7808L16.3619 25.5334C16.4115 25.401 16.3271 25.2564 16.1875 25.2345L15.6997 25.1579C13.9986 24.8906 11.5885 24.1821 9.55175 22.335C9.5083 22.2956 9.55021 22.2247 9.60519 22.2451C9.77071 22.3066 9.95324 22.3779 10.1412 22.4513C10.6017 22.6312 11.078 22.8173 11.3888 22.8911C13.573 23.4104 15.7879 23.6738 17.9767 23.6738V23.6349H17.9812L17.9815 23.6738C20.1658 23.6738 22.3807 23.4105 24.5647 22.8911C24.8756 22.8172 25.3519 22.6312 25.8125 22.4512C26.0003 22.3778 26.1828 22.3065 26.3482 22.2451C26.4032 22.2247 26.4451 22.2956 26.4016 22.335C24.3717 24.174 21.9586 24.8806 20.2537 25.1477L19.766 25.224C19.6264 25.2459 19.5419 25.3903 19.5914 25.5227L21.1814 29.7806C21.2176 29.8775 21.3158 29.9369 21.4185 29.924L21.7346 29.8843C24.177 29.5771 28.0595 28.4194 30.9633 26.1677L31.1723 26.0056L31.2018 25.7429C31.7652 20.7339 31.237 12.7379 29.3783 8.0279ZM12.788 19.5916C10.8134 19.7677 9.16609 18.1205 9.34194 16.1459C9.4768 14.6323 10.6956 13.4133 12.2093 13.2783C14.1839 13.1023 15.8312 14.7495 15.6554 16.7241C15.5204 18.2377 14.3016 19.4566 12.788 19.5916ZM23.7445 19.5916C21.77 19.7677 20.1226 18.1205 20.2985 16.1459C20.4333 14.6323 21.6521 13.4133 23.1658 13.2783C25.1403 13.1023 26.7877 14.7495 26.6119 16.7241C26.477 18.2377 25.2582 19.4566 23.7445 19.5916Z" fill="white"/>
</svg>
