<svg width="36" height="36" viewBox="0 0 36 36" fill="none" xmlns="http://www.w3.org/2000/svg">
<path d="M17.9999 0C27.9404 0 36 8.05949 36 18.0001C36 27.9406 27.9405 36 18.0001 36C8.05962 36 0 27.9405 0 18.0001C0 8.05962 8.05838 0 17.9999 0Z" fill="#3F729B"/>
<path d="M24.2122 7.8728H11.7867C9.6278 7.8728 7.87277 9.62894 7.87277 11.7867V24.2135C7.87277 26.3724 9.62891 28.1274 11.7867 28.1274H24.2135C26.3723 28.1274 28.1274 26.3712 28.1274 24.2135V11.7867C28.1272 9.62894 26.3711 7.8728 24.2122 7.8728ZM25.4453 10.1375L25.8885 10.1363V13.4979L22.5023 13.5091L22.4911 10.1476L25.4453 10.1375ZM18.0001 14.6115C20.8092 14.6115 21.3885 17.2485 21.3885 18.0011C21.3885 19.8674 19.8675 21.3884 18.0001 21.3884C16.1315 21.3884 14.6116 19.8674 14.6116 18.0011C14.6104 17.2485 15.1909 14.6115 18.0001 14.6115ZM25.9077 23.9682C25.9077 25.0381 25.0381 25.9088 23.9659 25.9088H11.9959C10.9248 25.9088 10.0541 25.0392 10.0541 23.9682V15.7456H12.8666C12.6056 16.3879 12.4582 17.2654 12.4582 18.0012C12.4582 21.0545 14.9422 23.5396 17.9966 23.5396C21.051 23.5396 23.5338 21.0545 23.5338 18.0012C23.5338 17.2654 23.3864 16.3879 23.1265 15.7456H25.9052V23.9682H25.9077Z" fill="white"/>
</svg>
