<svg width="36" height="36" viewBox="0 0 36 36" fill="none" xmlns="http://www.w3.org/2000/svg">
<path d="M17.9999 0C27.9416 0 36 8.05949 36 18.0001C36 27.9417 27.9416 36 17.9999 36C8.05826 36 0 27.9416 0 18.0001C0 8.05949 8.05838 0 17.9999 0Z" fill="#26A6D1"/>
<path d="M29.2534 12.1262C28.4671 12.4659 27.6209 12.6943 26.7334 12.7979C27.6402 12.2702 28.3355 11.4366 28.6628 10.441C27.8146 10.9304 26.8763 11.2848 25.8762 11.4749C25.0763 10.648 23.9366 10.1316 22.6744 10.1316C20.2535 10.1316 18.2892 12.0363 18.2892 14.3874C18.2892 14.7216 18.3275 15.0467 18.4028 15.3584C14.7578 15.1807 11.5246 13.4852 9.36236 10.9101C8.98434 11.539 8.76833 12.2691 8.76833 13.0498C8.76833 14.5258 9.54228 15.8308 10.7191 16.5925C9.99914 16.57 9.32405 16.3798 8.73125 16.0593V16.1133C8.73125 18.1765 10.2432 19.8967 12.2502 20.2882C11.8823 20.3849 11.4953 20.4378 11.0948 20.4378C10.8124 20.4378 10.5379 20.412 10.2701 20.3613C10.8281 22.0533 12.4482 23.284 14.3685 23.3179C12.8667 24.4608 10.9755 25.1404 8.9202 25.1404C8.56579 25.1404 8.21705 25.1201 7.87277 25.0808C9.81563 26.289 12.1197 26.9944 14.598 26.9944C22.6665 26.9944 27.0788 20.5054 27.0788 14.8804L27.0665 14.3291C27.9214 13.7305 28.665 12.9813 29.2534 12.1262Z" fill="white"/>
</svg>
