<svg width="40" height="40" viewBox="0 0 40 40" fill="none" xmlns="http://www.w3.org/2000/svg">
<path d="M20 18.3333C21.3186 18.3333 22.6075 17.9423 23.7038 17.2098C24.8001 16.4773 25.6546 15.4361 26.1592 14.2179C26.6638 12.9997 26.7958 11.6593 26.5386 10.3661C26.2813 9.07286 25.6464 7.88497 24.7141 6.95262C23.7817 6.02027 22.5938 5.38534 21.3006 5.1281C20.0074 4.87087 18.667 5.00289 17.4488 5.50747C16.2306 6.01206 15.1894 6.86654 14.4569 7.96287C13.7243 9.0592 13.3333 10.3481 13.3333 11.6667C13.3333 13.4348 14.0357 15.1305 15.286 16.3807C16.5362 17.631 18.2319 18.3333 20 18.3333Z" fill="#666666"/>
<path d="M30 35C30.442 35 30.866 34.8244 31.1785 34.5118C31.4911 34.1992 31.6667 33.7753 31.6667 33.3333C31.6667 30.2391 30.4375 27.2716 28.2496 25.0837C26.0617 22.8958 23.0942 21.6666 20 21.6666C16.9058 21.6666 13.9384 22.8958 11.7504 25.0837C9.56251 27.2716 8.33334 30.2391 8.33334 33.3333C8.33334 33.7753 8.50894 34.1992 8.8215 34.5118C9.13406 34.8244 9.55798 35 10 35H30Z" fill="#666666"/>
</svg>
