<svg width="18" height="17" viewBox="0 0 18 17" fill="none" xmlns="http://www.w3.org/2000/svg">
<path d="M13.6333 16.5C13.5 16.5005 13.3686 16.4691 13.25 16.4083L8.99998 14.1833L4.74999 16.4083C4.61198 16.4809 4.45638 16.5133 4.30088 16.5018C4.14538 16.4903 3.99622 16.4355 3.87034 16.3435C3.74447 16.2514 3.64694 16.126 3.58883 15.9813C3.53073 15.8366 3.51438 15.6785 3.54165 15.525L4.37498 10.8333L0.941652 7.49997C0.834533 7.39307 0.758545 7.25902 0.721842 7.11221C0.685139 6.9654 0.689106 6.81136 0.733319 6.66663C0.781619 6.51853 0.870466 6.38693 0.989777 6.28677C1.10909 6.1866 1.25409 6.12189 1.40832 6.09997L6.15832 5.4083L8.24999 1.1333C8.31822 0.992407 8.42477 0.873585 8.55741 0.790444C8.69006 0.707304 8.84344 0.663208 8.99998 0.663208C9.15653 0.663208 9.30991 0.707304 9.44256 0.790444C9.5752 0.873585 9.68175 0.992407 9.74998 1.1333L11.8667 5.39997L16.6167 6.09163C16.7709 6.11356 16.9159 6.17827 17.0352 6.27843C17.1545 6.3786 17.2434 6.5102 17.2917 6.6583C17.3359 6.80303 17.3398 6.95707 17.3031 7.10388C17.2664 7.25069 17.1904 7.38474 17.0833 7.49163L13.65 10.825L14.4833 15.5166C14.5131 15.6729 14.4975 15.8343 14.4384 15.982C14.3794 16.1297 14.2793 16.2574 14.15 16.35C13.9991 16.4557 13.8174 16.5085 13.6333 16.5Z" fill="#FED766"/>
</svg>
