<svg width="191" height="39" viewBox="0 0 191 39" fill="none" xmlns="http://www.w3.org/2000/svg">
<path d="M0 9.77181C2.49862 8.52512 5.24068 7.85836 8.02627 7.82013C13.0501 7.82013 17.7294 10.1206 17.7294 16.0292V30.7842H11.8041V16.2439C11.8041 14.158 10.1273 13.2459 8.41068 13.2459C7.55814 13.2416 6.71785 13.4513 5.96502 13.8562V30.7507H0V9.77181Z" fill="#FF0000"/>
<path d="M21.547 15.8549C21.547 10.4894 26.0075 7.86037 30.4746 7.80671C34.9418 7.75306 39.3559 10.4894 39.3559 15.8549V23.1921C39.3559 28.6179 34.8954 31.1396 30.4746 31.1866C26.0539 31.2335 21.547 28.6246 21.547 23.1921V15.8549ZM27.512 15.4659V23.3262C27.512 24.7615 29.0563 25.7608 30.4746 25.7608C31.893 25.7608 33.3909 24.7615 33.3909 23.3262V15.4592C33.3909 14.0239 31.8466 13.2459 30.4746 13.2459C29.1027 13.2459 27.512 14.0306 27.512 15.4592V15.4659Z" fill="#FF0000"/>
<path d="M44.9365 23.4738C46.6133 25.0834 48.7541 25.9955 50.2984 25.9955C50.663 26.029 51.0292 25.9519 51.3503 25.7739C51.6714 25.5959 51.9328 25.3252 52.1012 24.9962C52.6579 23.6951 51.9752 22.4342 49.9537 22.1324C44.9763 21.2672 42.7029 18.0077 42.6632 14.7952C42.6234 11.2741 45.3673 7.84695 50.2586 7.84695C52.8151 7.79318 55.3137 8.62098 57.3437 10.1943L54.348 14.2922C53.3385 13.4257 52.0658 12.9356 50.7424 12.9039C50.24 12.8801 49.7487 13.0588 49.3761 13.4006C49.0035 13.7425 48.7799 14.2198 48.7541 14.7281C48.6282 16.0695 50.7424 17.0285 51.7167 17.2029C54.5468 17.9407 58.1126 19.5503 58.1126 23.8024C58.1126 28.7118 54.2486 31.1799 50.0863 31.1799C46.9977 31.1799 44.2074 30.1806 42.1329 27.357L44.9365 23.4738Z" fill="#FF0000"/>
<path d="M61.453 9.51023C64.2231 8.43849 67.1569 7.86426 70.1221 7.81342C74.8014 7.81342 79.348 9.3761 79.348 15.325V23.5408C79.348 28.8392 75.2255 31.1396 71.0633 31.1866C69.8196 31.1914 68.5895 30.9237 67.4578 30.4019V39H61.453V9.51023ZM67.4644 26.0156C68.183 26.3814 68.98 26.5612 69.7841 26.5388C71.7128 26.5388 73.3896 25.5864 73.3896 23.5408V15.0299C73.3896 13.2057 71.799 12.421 69.8703 12.421C69.0395 12.4086 68.2168 12.5875 67.4644 12.9441V26.0156Z" fill="#FF0000"/>
<path d="M99.5695 26.9278C97.8529 30.1403 94.4197 31.1866 91.8017 31.1866C87.3412 31.1866 82.8343 28.5039 82.8343 23.1921V15.7677C82.8343 10.3419 87.4274 7.82013 91.8879 7.82013C96.2225 7.82013 100.504 10.0803 100.504 15.5061V22.1324H88.8126V23.1317C88.8126 24.8688 90.443 25.8145 92.1596 25.8145C92.8334 25.8473 93.5046 25.7092 94.1122 25.4129C94.7199 25.1166 95.2448 24.6713 95.6392 24.1176L99.5695 26.9278ZM94.8505 15.5933C94.8505 14.0306 93.4322 13.2459 91.9343 13.2459C90.4364 13.2459 88.8126 14.0306 88.8126 15.6335V17.6456H94.824L94.8505 15.5933Z" fill="#FF0000"/>
<path d="M113.514 31.0994C113.084 31.1463 112.659 31.1866 112.268 31.1866C106.515 31.1866 103.984 27.4509 103.984 22.85V0H109.949V22.8433C109.949 24.5402 111.062 25.9285 113.508 25.9285L113.514 31.0994Z" fill="#FF0000"/>
<path d="M125.444 31.0994C125.014 31.1463 124.589 31.1866 124.198 31.1866C118.445 31.1866 115.914 27.4509 115.914 22.85V0H121.879V22.8433C121.879 24.5402 122.992 25.9285 125.438 25.9285L125.444 31.0994Z" fill="#FF0000"/>
<path d="M129.653 23.4738C131.33 25.0834 133.471 25.9955 135.015 25.9955C135.38 26.0291 135.746 25.9519 136.067 25.7739C136.388 25.5959 136.649 25.3252 136.818 24.9962C137.374 23.6951 136.692 22.4342 134.67 22.1324C129.693 21.2673 127.419 18.0077 127.38 14.7952C127.34 11.2741 130.084 7.84696 134.975 7.84696C137.531 7.79586 140.029 8.62338 142.06 10.1943L139.098 14.319C138.088 13.4525 136.816 12.9625 135.492 12.9307C134.99 12.907 134.498 13.0856 134.126 13.4275C133.753 13.7693 133.53 14.2466 133.504 14.755C133.378 16.0963 135.492 17.0554 136.466 17.2298C139.296 17.9675 142.862 19.5771 142.862 23.8292C142.862 28.7386 138.998 31.2067 134.836 31.2067C131.747 31.2067 128.957 30.2074 126.883 27.3838L129.653 23.4738Z" fill="#FF0000"/>
<path d="M149.092 23.4738C149.83 23.4605 150.555 23.6699 151.174 24.0753C151.794 24.4807 152.28 25.0637 152.57 25.7499C152.861 26.4361 152.943 27.1943 152.805 27.9278C152.668 28.6612 152.318 29.3367 151.8 29.8679C151.281 30.3991 150.618 30.7619 149.895 30.9101C149.172 31.0582 148.422 30.985 147.74 30.6997C147.058 30.4144 146.476 29.93 146.068 29.3083C145.659 28.6867 145.443 27.956 145.447 27.2095C145.444 26.7218 145.535 26.2383 145.717 25.7865C145.898 25.3348 146.166 24.9236 146.504 24.5767C146.843 24.2297 147.246 23.9537 147.69 23.7644C148.134 23.5752 148.611 23.4764 149.092 23.4738Z" fill="#333333"/>
<path d="M165.794 28.2892C165.502 29.1716 164.937 29.9355 164.183 30.468C163.429 31.0006 162.525 31.2737 161.606 31.2469C159.472 31.2469 157.291 29.9861 157.291 27.4039V23.8158C157.291 21.2337 159.472 19.9527 161.606 19.9527C163.143 19.9527 165.112 20.6636 165.669 22.8903L163.203 23.6683C163.091 23.3348 162.874 23.0476 162.586 22.8502C162.297 22.6529 161.953 22.5563 161.606 22.5751C161.256 22.5453 160.909 22.6571 160.641 22.8859C160.372 23.1147 160.204 23.4419 160.174 23.7957V27.3838C160.187 27.5608 160.234 27.7334 160.313 27.8918C160.392 28.0502 160.501 28.1912 160.634 28.3066C160.767 28.422 160.922 28.5095 161.088 28.5641C161.255 28.6187 161.431 28.6392 161.606 28.6246C161.97 28.6338 162.327 28.5248 162.625 28.3135C162.923 28.1023 163.147 27.8 163.263 27.4509L165.794 28.2892Z" fill="#333333"/>
<path d="M167.021 23.8359C167.021 21.2538 169.175 19.9728 171.335 19.9527C173.496 19.9326 175.637 21.2538 175.637 23.8359V27.3838C175.637 30.0062 173.483 31.2268 171.342 31.2469C169.201 31.2671 167.021 30.0062 167.021 27.3838V23.8359ZM169.904 23.6482V27.4442C169.971 27.7754 170.149 28.0729 170.408 28.2865C170.667 28.5001 170.991 28.6168 171.325 28.6168C171.66 28.6168 171.983 28.5001 172.242 28.2865C172.501 28.0729 172.68 27.7754 172.747 27.4442V23.6482C172.747 22.9775 171.998 22.5751 171.335 22.5751C170.673 22.5751 169.884 22.9574 169.884 23.6482H169.904Z" fill="#333333"/>
<path d="M177.493 21.3008C178.58 20.4173 179.936 19.9432 181.33 19.9594C181.883 19.9248 182.435 20.0291 182.938 20.2632C183.441 20.4973 183.879 20.8537 184.213 21.3008C184.551 20.8858 184.975 20.5507 185.455 20.319C185.935 20.0873 186.459 19.9646 186.99 19.9594C188.979 19.9594 190.967 21.18 190.967 23.6548V31.0323H188.104V23.5475C188.104 22.8769 187.481 22.5818 186.838 22.5818C186.195 22.5818 185.552 22.897 185.552 23.5274V31.039H182.795V23.6079C182.795 22.9372 182.046 22.5818 181.323 22.5818C180.938 22.5841 180.568 22.7352 180.289 23.0043V31.0524H177.493V21.3008Z" fill="#333333"/>
</svg>
